<?xml version="1.0" standalone="no"?>
<!DOCTYPE svg PUBLIC "-//W3C//DTD SVG 20010904//EN"
 "http://www.w3.org/TR/2001/REC-SVG-20010904/DTD/svg10.dtd">
<svg version="1.0" xmlns="http://www.w3.org/2000/svg"
 width="700.000000pt" height="700.000000pt" viewBox="0 0 700.000000 700.000000"
 preserveAspectRatio="xMidYMid meet">
<metadata>
Created by potrace 1.14, written by Peter Selinger 2001-2017
</metadata>
<g transform="translate(0.000000,700.000000) scale(0.100000,-0.100000)"
fill="#000000" stroke="none">
<path d="M1787 6443 c-1 0 -42 -4 -92 -7 -425 -28 -841 -216 -1145 -518 -237
-235 -382 -479 -483 -813 -14 -46 -18 -63 -32 -135 -25 -123 -33 -223 -30
-380 3 -144 6 -174 21 -240 3 -14 8 -36 11 -50 6 -35 33 -131 43 -155 4 -11
18 -49 31 -85 73 -208 223 -468 418 -725 42 -55 78 -102 81 -105 3 -3 18 -21
34 -40 187 -230 558 -600 870 -865 32 -27 68 -59 80 -70 12 -11 71 -63 131
-114 61 -52 117 -102 126 -110 9 -9 34 -32 55 -51 73 -65 239 -215 288 -260
27 -25 54 -50 60 -55 42 -38 526 -485 547 -505 14 -14 77 -72 139 -130 62 -58
130 -121 150 -140 74 -70 283 -266 313 -292 52 -47 137 -50 188 -5 14 12 82
75 150 139 68 64 138 129 154 144 17 15 86 80 155 144 69 65 139 131 156 146
27 25 89 83 277 257 16 15 68 62 115 105 46 42 98 91 116 107 17 17 81 75 141
130 61 54 112 102 115 105 3 3 64 57 135 120 72 63 137 121 146 130 9 8 42 38
74 65 32 28 63 55 69 60 6 6 43 37 81 70 39 33 72 62 75 65 3 3 45 41 95 85
173 153 376 353 527 517 51 56 100 108 108 117 49 54 220 270 269 341 226 328
341 563 406 830 34 138 40 197 40 365 -1 168 -10 249 -45 400 -135 570 -548
1054 -1085 1269 -38 16 -79 32 -90 37 -30 12 -151 45 -230 63 -64 14 -122 22
-215 31 -52 6 -281 6 -315 1 -16 -3 -54 -7 -84 -11 -239 -25 -553 -145 -770
-292 -252 -172 -405 -335 -578 -618 -7 -11 -27 -50 -45 -87 -18 -37 -35 -68
-38 -68 -3 0 -16 24 -30 53 -129 278 -378 557 -663 742 -191 124 -469 231
-672 260 -22 3 -49 8 -61 10 -36 8 -282 24 -287 18z"/>
</g>
</svg>
